<svg xmlns="http://www.w3.org/2000/svg" version="1.1" xmlns:xlink="http://www.w3.org/1999/xlink" xmlns:svgjs="http://svgjs.com/svgjs" width="1440" height="560" preserveAspectRatio="none" viewBox="0 0 1440 560"><g mask="url(&quot;#SvgjsMask1000&quot;)" fill="none"><rect width="1440" height="560" x="0" y="0" fill="#0e2a47"></rect><path d="M0,556.873C114.348,582.005,243.294,595.055,343.377,534.306C443.963,473.252,493.011,352.728,523.541,239.093C551.117,136.453,544.686,26.357,506.49,-72.822C472.662,-160.658,378.753,-204.114,323.504,-280.318C260.81,-366.791,258.25,-504.416,161.216,-549.053C64.958,-593.334,-45.366,-530.255,-145.683,-496.152C-242.114,-463.37,-349.616,-437.244,-409.67,-354.981C-468.484,-274.417,-433.449,-162.334,-459.641,-66.086C-490.973,49.05,-625.244,154.395,-578.116,264.017C-531.318,372.87,-364.079,348.505,-258.381,402.048C-166.961,448.359,-100.092,534.874,0,556.873" fill="#0b2239"></path><path d="M1440 950.396C1522.241 949.1279999999999 1604.385 964.62 1681.2930000000001 935.4590000000001 1769.723 901.9300000000001 1867.213 859.068 1907.065 773.3009999999999 1946.9479999999999 687.466 1913.05 586.499 1885.5140000000001 495.945 1861.062 415.533 1822.805 338.08000000000004 1758.328 284.167 1698.8220000000001 234.41000000000003 1614.728 238.81599999999997 1542.922 209.48000000000002 1460.154 175.666 1392.19 80.96100000000001 1304.577 98.79199999999997 1217.931 116.42599999999999 1172.715 214.62400000000002 1131.993 293.111 1097.437 359.71299999999997 1111.888 437.712 1091.297 509.864 1066.2269999999999 597.711 977.1990000000001 672.844 998.254 761.739 1019.165 850.025 1110.441 907.337 1193.879 942.971 1270.921 975.874 1356.236 951.687 1440 950.396" fill="#113255"></path></g><defs><mask id="SvgjsMask1000"><rect width="1440" height="560" fill="#ffffff"></rect></mask></defs></svg>